<?xml version="1.0" encoding="UTF-8" standalone="no"?>
<svg
   width="12"
   height="9"
   viewBox="0 0 12 9"
   fill="none"
   version="1.1"
   id="svg4"
   sodipodi:docname="check-white.svg"
   inkscape:version="1.1.2 (b8e25be833, 2022-02-05)"
   xmlns:inkscape="http://www.inkscape.org/namespaces/inkscape"
   xmlns:sodipodi="http://sodipodi.sourceforge.net/DTD/sodipodi-0.dtd"
   xmlns="http://www.w3.org/2000/svg"
   xmlns:svg="http://www.w3.org/2000/svg">
  <defs
     id="defs8" />
  <sodipodi:namedview
     id="namedview6"
     pagecolor="#ffffff"
     bordercolor="#666666"
     borderopacity="1.0"
     inkscape:pageshadow="2"
     inkscape:pageopacity="0.0"
     inkscape:pagecheckerboard="0"
     showgrid="false"
     inkscape:zoom="89.777778"
     inkscape:cx="5.9981436"
     inkscape:cy="4.4777228"
     inkscape:window-width="1920"
     inkscape:window-height="1001"
     inkscape:window-x="-9"
     inkscape:window-y="-9"
     inkscape:window-maximized="1"
     inkscape:current-layer="svg4" />
  <path
     d="M4.5 8.625L0.75 4.905L1.9425 3.75L4.5 6.2625L10.0575 0.75L11.25 1.935L4.5 8.625Z"
     fill="#545759"
     id="path2" />
  <path
     style="fill:#ffffff;stroke-width:0.0111386"
     d="M 2.6293276,6.7600827 C 1.6059078,5.7445581 0.76856436,4.9098443 0.76856436,4.9051632 c 0,-0.00468 0.26428734,-0.26447 0.58730524,-0.5773085 L 1.9431749,3.7590576 2.0938028,3.908494 C 2.7254403,4.5351351 4.4957816,6.26502 4.5029835,6.2626194 4.5079218,6.2609733 5.7577238,5.0241375 7.2803214,3.5140954 8.802919,2.0040533 10.052082,0.76730683 10.056239,0.76576985 c 0.0042,-0.001537 0.271751,0.26161275 0.594655,0.58477725 L 11.23799,1.9381188 7.8799882,5.2661851 C 6.0330872,7.0966216 4.5148098,8.5970053 4.5060386,8.6003712 4.4955549,8.6043941 3.8525501,7.9738685 2.6293276,6.7600827 Z"
     id="path899" />
</svg>
