<svg width="32" height="31" viewBox="0 0 32 31" fill="none" xmlns="http://www.w3.org/2000/svg">
<path d="M30.2222 0H1.77778C1.30628 0 0.854097 0.181448 0.520699 0.504427C0.187301 0.827406 0 1.26546 0 1.72222V29.2778C0 29.7345 0.187301 30.1726 0.520699 30.4956C0.854097 30.8186 1.30628 31 1.77778 31H17.0933V19.0133H12.9369V14.3203H17.0933V10.8758C17.0933 6.87167 19.6178 4.68961 23.3156 4.68961C24.5582 4.68617 25.8027 4.74817 27.04 4.87389V9.04167H24.4889C22.4836 9.04167 22.0924 9.96822 22.0924 11.3236V14.3117H26.8871L26.2649 19.0047H22.0907V31H30.2222C30.6937 31 31.1459 30.8186 31.4793 30.4956C31.8127 30.1726 32 29.7345 32 29.2778V1.72222C32 1.26546 31.8127 0.827406 31.4793 0.504427C31.1459 0.181448 30.6937 0 30.2222 0Z" fill="#A69C8F"/>
</svg>
