<svg width="19" height="19" viewBox="0 0 19 19" fill="none" xmlns="http://www.w3.org/2000/svg">
<path d="M9.31223 0C4.17718 0 3.23251e-05 3.71681 3.23251e-05 8.29239V15.896C-0.0025207 16.2933 0.146243 16.6761 0.414832 16.9633C0.683421 17.2505 1.05075 17.4195 1.43907 17.4346C1.50358 17.7662 1.67812 18.0648 1.93317 18.28C2.18821 18.4952 2.50811 18.6136 2.83874 18.6154H3.62606C4.0054 18.6154 4.3692 18.4613 4.63743 18.187C4.90566 17.9127 5.05635 17.5407 5.05635 17.1528V12.6801C5.0529 12.2941 4.90082 11.9251 4.63309 11.653C4.36536 11.3809 4.00354 11.2276 3.62606 11.2265H2.83874C2.56321 11.2238 2.2928 11.3026 2.06001 11.4534C1.82722 11.6041 1.64198 11.8204 1.52655 12.0763C1.52655 12.0822 1.52425 12.0879 1.52014 12.0921C1.51604 12.0963 1.51048 12.0987 1.50468 12.0987C1.49888 12.0987 1.49332 12.0963 1.48922 12.0921C1.48511 12.0879 1.48281 12.0822 1.48281 12.0763V8.29239C1.48281 4.56215 4.98199 1.52966 9.29473 1.52966C13.6075 1.52966 17.1242 4.56215 17.1242 8.29239V12.0405C17.1242 12.0464 17.1219 12.0521 17.1177 12.0563C17.1136 12.0605 17.1081 12.0629 17.1023 12.0629C17.0965 12.0629 17.0909 12.0605 17.0868 12.0563C17.0827 12.0521 17.0804 12.0464 17.0804 12.0405C16.9611 11.7951 16.7771 11.5888 16.549 11.445C16.3209 11.3011 16.0581 11.2254 15.7901 11.2265H14.9984C14.6179 11.2265 14.253 11.381 13.9839 11.6562C13.7149 11.9313 13.5637 12.3044 13.5637 12.6935V17.1662C13.5672 17.5526 13.72 17.9218 13.9888 18.1933C14.2576 18.4648 14.6206 18.6166 14.9984 18.6154H15.777C16.1093 18.6165 16.4317 18.4993 16.6887 18.2838C16.9457 18.0684 17.1214 17.7681 17.1854 17.4346C17.5699 17.4173 17.9331 17.2492 18.1995 16.9651C18.4659 16.6811 18.6149 16.3029 18.6157 15.9094V8.3058C18.6244 3.71681 14.4473 0 9.31223 0Z" fill="white"/>
<path d="M9.12859 17.6785L8.18919 17.829C7.99642 17.8599 7.86728 18.0285 7.90075 18.2056L7.91721 18.2927C7.95068 18.4699 8.13408 18.5884 8.32685 18.5576L9.26625 18.407C9.45902 18.3762 9.58816 18.2075 9.5547 18.0304L9.53824 17.9433C9.50477 17.7661 9.32136 17.6476 9.12859 17.6785Z" fill="white"/>
</svg>
