<svg width="31" height="31" viewBox="0 0 31 31" fill="none" xmlns="http://www.w3.org/2000/svg">
<path d="M15.5 11.8091C14.7701 11.8093 14.0566 12.026 13.4498 12.4318C12.843 12.8375 12.3702 13.414 12.091 14.0885C11.8119 14.763 11.739 15.505 11.8815 16.2209C12.0241 16.9368 12.3757 17.5943 12.892 18.1104C13.4082 18.6264 14.0659 18.9778 14.7818 19.1201C15.4978 19.2624 16.2398 19.1892 16.9142 18.9098C17.5885 18.6304 18.1649 18.1574 18.5704 17.5504C18.9759 16.9435 19.1923 16.2299 19.1923 15.5C19.1916 14.5211 18.8023 13.5825 18.11 12.8904C17.4176 12.1984 16.4789 11.8094 15.5 11.8091ZM24.1295 8.97201C23.9416 8.49583 23.6578 8.06334 23.2959 7.70136C22.9339 7.33938 22.5014 7.05564 22.0252 6.86775C20.5721 6.29411 17.1123 6.42281 15.5 6.42281C13.8877 6.42281 10.4314 6.28926 8.97408 6.86775C8.4979 7.05564 8.06541 7.33938 7.70343 7.70136C7.34146 8.06334 7.05772 8.49583 6.86982 8.97201C6.29687 10.4251 6.42489 13.8884 6.42489 15.4993C6.42489 17.1102 6.29687 20.5693 6.87259 22.0273C7.06049 22.5035 7.34423 22.936 7.7062 23.2979C8.06818 23.6599 8.50067 23.9437 8.97685 24.1316C10.43 24.7052 13.8898 24.5765 15.5028 24.5765C17.1157 24.5765 20.5707 24.71 22.028 24.1316C22.5042 23.9437 22.9367 23.6599 23.2986 23.2979C23.6606 22.936 23.9444 22.5035 24.1323 22.0273C24.71 20.5742 24.5772 17.1109 24.5772 15.5C24.5772 13.8891 24.71 10.4307 24.1323 8.9727L24.1295 8.97201ZM15.5 21.1741C14.3778 21.1741 13.2807 20.8413 12.3476 20.2178C11.4145 19.5944 10.6873 18.7082 10.2578 17.6714C9.82835 16.6346 9.71598 15.4937 9.93492 14.393C10.1539 13.2924 10.6943 12.2813 11.4878 11.4878C12.2813 10.6943 13.2924 10.1539 14.393 9.93492C15.4937 9.71598 16.6346 9.82835 17.6714 10.2578C18.7082 10.6873 19.5944 11.4145 20.2178 12.3476C20.8413 13.2807 21.1741 14.3778 21.1741 15.5C21.175 16.2454 21.0289 16.9836 20.744 17.6725C20.4592 18.3613 20.0413 18.9872 19.5142 19.5142C18.9872 20.0413 18.3613 20.4592 17.6725 20.744C16.9836 21.0289 16.2454 21.175 15.5 21.1741ZM21.408 10.9123C21.146 10.9124 20.8899 10.8349 20.672 10.6894C20.4541 10.544 20.2842 10.3372 20.1839 10.0952C20.0835 9.85318 20.0572 9.58686 20.1082 9.3299C20.1593 9.07294 20.2854 8.83689 20.4705 8.6516C20.6557 8.4663 20.8917 8.34009 21.1487 8.28894C21.4056 8.23778 21.6719 8.26396 21.914 8.36419C22.156 8.46441 22.3629 8.63416 22.5085 8.85198C22.654 9.06979 22.7317 9.32588 22.7317 9.58786C22.7324 9.76183 22.6988 9.93423 22.6328 10.0952C22.5667 10.2561 22.4695 10.4024 22.3468 10.5257C22.2241 10.649 22.0782 10.7469 21.9176 10.8137C21.757 10.8805 21.5847 10.915 21.4108 10.915L21.408 10.9123ZM27.6786 0H3.32143C2.44053 0 1.59571 0.349935 0.972824 0.972824C0.349935 1.59571 0 2.44053 0 3.32143L0 27.6786C0 28.5595 0.349935 29.4043 0.972824 30.0272C1.59571 30.6501 2.44053 31 3.32143 31H27.6786C28.5595 31 29.4043 30.6501 30.0272 30.0272C30.6501 29.4043 31 28.5595 31 27.6786V3.32143C31 2.44053 30.6501 1.59571 30.0272 0.972824C29.4043 0.349935 28.5595 0 27.6786 0ZM26.4939 20.067C26.4047 21.8405 25.9999 23.4119 24.7052 24.7031C23.4105 25.9943 21.8405 26.4074 20.069 26.4919C18.2416 26.595 12.7626 26.595 10.9351 26.4919C9.16161 26.4026 7.59569 25.9971 6.29895 24.7031C5.00221 23.4092 4.59464 21.837 4.51022 20.067C4.40712 18.2388 4.40712 12.7591 4.51022 10.933C4.59949 9.15953 4.99944 7.58808 6.29895 6.29687C7.59846 5.00567 9.16853 4.59741 10.9351 4.51299C12.7626 4.40989 18.2416 4.40989 20.069 4.51299C21.8425 4.60225 23.4133 5.00775 24.7052 6.30172C25.9971 7.59569 26.4095 9.16783 26.4939 10.9413C26.597 12.7626 26.597 18.2374 26.4939 20.067Z" fill="#A69C8F"/>
</svg>
