<svg width="32" height="31" viewBox="0 0 32 31" fill="none" xmlns="http://www.w3.org/2000/svg">
<path d="M28.5714 0H3.42857C1.53571 0 0 1.48772 0 3.32143V27.6786C0 29.5123 1.53571 31 3.42857 31H28.5714C30.4643 31 32 29.5123 32 27.6786V3.32143C32 1.48772 30.4643 0 28.5714 0ZM28.1071 21.79C27.8571 22.3504 26.8143 22.7587 24.9071 23.0493C24.8071 23.1808 24.7286 23.7275 24.6 24.1496C24.5214 24.4056 24.3357 24.5578 24.0214 24.5578H24.0071C23.5643 24.5578 23.0929 24.3571 22.1643 24.3571C20.9071 24.3571 20.4714 24.6339 19.4929 25.3051C18.4571 26.0179 17.4643 26.6268 15.9786 26.5645C14.4786 26.6752 13.2214 25.7895 12.5143 25.3051C11.5286 24.6339 11.1 24.3571 9.84286 24.3571C8.95 24.3571 8.38571 24.5717 8 24.5717C7.61429 24.5717 7.46429 24.3433 7.40714 24.1565C7.27857 23.7344 7.2 23.1808 7.1 23.0493C6.11429 22.904 3.9 22.5304 3.85 21.5685C3.83571 21.3194 4.01429 21.098 4.27143 21.0565C7.57857 20.5306 9.06429 17.2438 9.12857 17.1054C9.12857 17.0984 9.13571 17.0915 9.14286 17.0846C9.32143 16.7386 9.35714 16.448 9.25714 16.2196C9.01429 15.673 7.97857 15.4792 7.54286 15.3062C6.41429 14.8772 6.25714 14.379 6.32857 14.04C6.44286 13.4518 7.35714 13.085 7.89286 13.3272C8.31429 13.521 8.69286 13.6179 9.01429 13.6179C9.25 13.6179 9.40714 13.5625 9.48571 13.521C9.38571 11.8672 9.15 9.50759 9.75714 8.18594C11.3643 4.70536 14.7643 4.42857 15.7643 4.42857C15.8071 4.42857 16.2 4.42165 16.2429 4.42165C18.7214 4.42165 21.1 5.65335 22.2643 8.17902C22.8714 9.50067 22.6357 11.8533 22.5357 13.5141C22.6143 13.5556 22.7429 13.604 22.9429 13.6109C23.25 13.5971 23.6 13.5002 23.9929 13.3203C24.2786 13.1888 24.6786 13.2096 24.9643 13.3203C25.4143 13.4795 25.7 13.7908 25.7071 14.1437C25.7143 14.5935 25.3 14.981 24.4786 15.2924C24.3786 15.3339 24.2571 15.3685 24.1286 15.41C23.6643 15.5554 22.9571 15.7699 22.7714 16.2058C22.6714 16.4342 22.7143 16.7248 22.8857 17.0708C22.8929 17.0777 22.8929 17.0846 22.9 17.0915C22.9643 17.2299 24.45 20.5167 27.7571 21.0426C28.0429 21.1118 28.2643 21.4232 28.1071 21.79Z" fill="#A69C8F"/>
</svg>
