<svg width="31" height="31" viewBox="0 0 31 31" fill="none" xmlns="http://www.w3.org/2000/svg">
<path d="M29.76 0H1.24C0.554125 0 0 0.554125 0 1.24V29.76C0 30.4459 0.554125 31 1.24 31H29.76C30.4459 31 31 30.4459 31 29.76V1.24C31 0.554125 30.4459 0 29.76 0ZM23.8429 11.2259C23.8545 11.408 23.8545 11.5979 23.8545 11.7839C23.8545 17.4724 19.5223 24.025 11.6056 24.025C9.16438 24.025 6.90137 23.3159 4.99487 22.0953C5.34362 22.134 5.67688 22.1495 6.03338 22.1495C8.04838 22.1495 9.90063 21.4675 11.377 20.3127C9.486 20.274 7.89725 19.034 7.35475 17.329C8.01737 17.4259 8.61413 17.4259 9.29612 17.2515C8.32244 17.0537 7.44727 16.5249 6.81929 15.7549C6.19131 14.9849 5.84926 14.0213 5.85125 13.0278V12.9735C6.42088 13.2951 7.09125 13.4928 7.79263 13.5199C7.20301 13.1269 6.71947 12.5946 6.38488 11.97C6.05029 11.3454 5.87498 10.6479 5.8745 9.93937C5.8745 9.13725 6.08375 8.40487 6.45963 7.76937C7.54037 9.0998 8.88898 10.1879 10.4178 10.963C11.9466 11.7381 13.6214 12.1828 15.3334 12.2683C14.725 9.34263 16.9105 6.975 19.5378 6.975C20.7778 6.975 21.8937 7.49425 22.6804 8.33125C23.653 8.14913 24.583 7.78487 25.4123 7.29662C25.0906 8.2925 24.4164 9.13338 23.5212 9.66425C24.3892 9.57125 25.2262 9.331 26.0012 8.99388C25.4161 9.85413 24.6838 10.6175 23.8429 11.2259Z" fill="#A69C8F"/>
</svg>
