<svg width="193" height="215" viewBox="0 0 193 215" fill="none" xmlns="http://www.w3.org/2000/svg">
<path d="M96.3254 214.8C79.3254 214.8 64.7254 212 52.5254 206.4C40.3254 200.8 30.3254 193.1 22.5254 183.3C14.9254 173.5 9.32538 162.3 5.72538 149.7C2.12538 136.9 0.325378 123.5 0.325378 109.5V0H58.8254V109.5C58.8254 116.5 59.5254 123.2 60.9254 129.6C62.3254 136 64.5254 141.7 67.5254 146.7C70.5254 151.7 74.3254 155.7 78.9254 158.7C83.7254 161.5 89.5254 162.9 96.3254 162.9C103.325 162.9 109.225 161.5 114.025 158.7C118.825 155.7 122.625 151.7 125.425 146.7C128.425 141.5 130.625 135.7 132.025 129.3C133.425 122.9 134.125 116.3 134.125 109.5V0H192.625V109.5C192.625 124.3 190.625 138.1 186.625 150.9C182.825 163.7 177.025 174.9 169.225 184.5C161.425 194.1 151.425 201.6 139.225 207C127.225 212.2 112.925 214.8 96.3254 214.8Z" fill="#FF0000"/>
</svg>
