<svg width="31" height="31" viewBox="0 0 31 31" fill="none" xmlns="http://www.w3.org/2000/svg">
<path d="M12.9259 11.7703L19.5134 15.5138L12.9259 19.2574V11.7703ZM31 3.32143V27.6786C31 29.5123 29.5123 31 27.6786 31H3.32143C1.48772 31 0 29.5123 0 27.6786V3.32143C0 1.48772 1.48772 0 3.32143 0H27.6786C29.5123 0 31 1.48772 31 3.32143ZM28.0937 15.5208C28.0937 15.5208 28.0937 11.3967 27.5679 9.41763C27.2772 8.32433 26.4261 7.46629 25.3397 7.17567C23.3815 6.64286 15.5 6.64286 15.5 6.64286C15.5 6.64286 7.61853 6.64286 5.66027 7.17567C4.57388 7.46629 3.72277 8.32433 3.43214 9.41763C2.90625 11.3897 2.90625 15.5208 2.90625 15.5208C2.90625 15.5208 2.90625 19.6449 3.43214 21.6239C3.72277 22.7172 4.57388 23.5406 5.66027 23.8312C7.61853 24.3571 15.5 24.3571 15.5 24.3571C15.5 24.3571 23.3815 24.3571 25.3397 23.8243C26.4261 23.5337 27.2772 22.7103 27.5679 21.617C28.0937 19.6449 28.0937 15.5208 28.0937 15.5208Z" fill="#A69C8F"/>
</svg>
