<svg width="26" height="24" viewBox="0 0 26 24" fill="none" xmlns="http://www.w3.org/2000/svg">
<g clip-path="url(#clip0_150_2296)">
<path d="M24.2606 0H2.23914C1.87411 0 1.52403 0.140476 1.26591 0.390524C1.0078 0.640573 0.862793 0.979711 0.862793 1.33333V22.6667C0.862793 23.0203 1.0078 23.3594 1.26591 23.6095C1.52403 23.8595 1.87411 24 2.23914 24H14.0963V14.72H10.8784V11.0867H14.0963V8.42C14.0963 5.32 16.0507 3.63067 18.9135 3.63067C19.8756 3.628 20.8391 3.676 21.797 3.77333V7H19.8219C18.2694 7 17.9666 7.71733 17.9666 8.76667V11.08H21.6786L21.1969 14.7133H17.9652V24H24.2606C24.6257 24 24.9758 23.8595 25.2339 23.6095C25.492 23.3594 25.637 23.0203 25.637 22.6667V1.33333C25.637 0.979711 25.492 0.640573 25.2339 0.390524C24.9758 0.140476 24.6257 0 24.2606 0Z" fill="#FF0000"/>
</g>
<defs>
<clipPath id="clip0_150_2296">
<rect width="24.7742" height="24" fill="white" transform="translate(0.862793)"/>
</clipPath>
</defs>
</svg>
