<svg width="24" height="24" viewBox="0 0 24 24" fill="none" xmlns="http://www.w3.org/2000/svg">
<g clip-path="url(#clip0_150_2302)">
<path d="M12.2622 9.6068C11.7148 9.607 11.1797 9.76953 10.7246 10.0738C10.2695 10.3781 9.91482 10.8105 9.70546 11.3164C9.4961 11.8222 9.44143 12.3788 9.54836 12.9157C9.65529 13.4526 9.91901 13.9457 10.3062 14.3328C10.6934 14.7198 11.1866 14.9834 11.7236 15.0901C12.2605 15.1968 12.8171 15.1419 13.3228 14.9324C13.8286 14.7228 14.2609 14.368 14.565 13.9128C14.8691 13.4576 15.0314 12.9225 15.0314 12.375C15.0309 11.6408 14.7389 10.9369 14.2197 10.4178C13.7004 9.89878 12.9964 9.60707 12.2622 9.6068ZM18.7343 7.47901C18.5934 7.12187 18.3806 6.7975 18.1091 6.52602C17.8376 6.25454 17.5133 6.04173 17.1561 5.90081C16.0663 5.47058 13.4714 5.56711 12.2622 5.56711C11.053 5.56711 8.46073 5.46695 7.36777 5.90081C7.01064 6.04173 6.68626 6.25454 6.41478 6.52602C6.1433 6.7975 5.9305 7.12187 5.78957 7.47901C5.35986 8.56885 5.45587 11.1663 5.45587 12.3745C5.45587 13.5827 5.35986 16.177 5.79165 17.2705C5.93257 17.6276 6.14538 17.952 6.41686 18.2235C6.68834 18.4949 7.01271 18.7077 7.36985 18.8487C8.45969 19.2789 11.0546 19.1824 12.2643 19.1824C13.474 19.1824 16.0652 19.2825 17.1582 18.8487C17.5153 18.7077 17.8397 18.4949 18.1112 18.2235C18.3827 17.952 18.5955 17.6276 18.7364 17.2705C19.1697 16.1806 19.0701 13.5832 19.0701 12.375C19.0701 11.1668 19.1697 8.573 18.7364 7.47953L18.7343 7.47901ZM12.2622 16.6306C11.4205 16.6306 10.5978 16.381 9.89793 15.9134C9.19811 15.4458 8.65266 14.7811 8.33056 14.0035C8.00847 13.2259 7.92419 12.3703 8.0884 11.5448C8.2526 10.7193 8.6579 9.961 9.25306 9.36585C9.84821 8.7707 10.6065 8.36539 11.432 8.20119C12.2575 8.03699 13.1131 8.12126 13.8907 8.44336C14.6684 8.76545 15.333 9.3109 15.8006 10.0107C16.2682 10.7106 16.5178 11.5333 16.5178 12.375C16.5185 12.934 16.4089 13.4877 16.1952 14.0043C15.9816 14.521 15.6682 14.9904 15.2729 15.3857C14.8776 15.781 14.4082 16.0944 13.8916 16.308C13.3749 16.5217 12.8212 16.6313 12.2622 16.6306ZM16.6932 8.93421C16.4967 8.93431 16.3046 8.87614 16.1412 8.76706C15.9778 8.65797 15.8504 8.50287 15.7751 8.32138C15.6999 8.13988 15.6801 7.94014 15.7184 7.74743C15.7567 7.55471 15.8512 7.37767 15.9901 7.2387C16.129 7.09973 16.306 7.00507 16.4987 6.9667C16.6914 6.92833 16.8912 6.94797 17.0727 7.02314C17.2542 7.09831 17.4094 7.22562 17.5186 7.38898C17.6277 7.55234 17.686 7.74441 17.686 7.94089C17.6865 8.07137 17.6613 8.20067 17.6118 8.32138C17.5623 8.44209 17.4894 8.55183 17.3973 8.64431C17.3053 8.73678 17.1959 8.81018 17.0754 8.86028C16.9549 8.91039 16.8258 8.93622 16.6953 8.93628L16.6932 8.93421ZM21.3961 0.75H3.12828C2.46761 0.75 1.83399 1.01245 1.36682 1.47962C0.899658 1.94678 0.637207 2.5804 0.637207 3.24107L0.637207 21.5089C0.637207 22.1696 0.899658 22.8032 1.36682 23.2704C1.83399 23.7375 2.46761 24 3.12828 24H21.3961C22.0568 24 22.6904 23.7375 23.1576 23.2704C23.6248 22.8032 23.8872 22.1696 23.8872 21.5089V3.24107C23.8872 2.5804 23.6248 1.94678 23.1576 1.47962C22.6904 1.01245 22.0568 0.75 21.3961 0.75ZM20.5077 15.8002C20.4407 17.1304 20.1371 18.3089 19.1661 19.2773C18.1951 20.2457 17.0176 20.5556 15.689 20.6189C14.3184 20.6962 10.2091 20.6962 8.83854 20.6189C7.50841 20.5519 6.33398 20.2478 5.36142 19.2773C4.38886 18.3069 4.08319 17.1278 4.01987 15.8002C3.94255 14.4291 3.94255 10.3193 4.01987 8.94978C4.08682 7.61965 4.38679 6.44106 5.36142 5.47266C6.33605 4.50425 7.5136 4.19806 8.83854 4.13474C10.2091 4.05742 14.3184 4.05742 15.689 4.13474C17.0191 4.20169 18.1972 4.50581 19.1661 5.47629C20.135 6.44677 20.4443 7.62588 20.5077 8.956C20.585 10.3219 20.585 14.4281 20.5077 15.8002Z" fill="#FF0000"/>
</g>
<defs>
<clipPath id="clip0_150_2302">
<rect width="23.25" height="24" fill="white" transform="translate(0.637207)"/>
</clipPath>
</defs>
</svg>
