<svg width="25" height="24" viewBox="0 0 25 24" fill="none" xmlns="http://www.w3.org/2000/svg">
<g clip-path="url(#clip0_150_2298)">
<path d="M22.0658 0.75H3.20864C1.78899 0.75 0.637207 1.86579 0.637207 3.24107V21.5089C0.637207 22.8842 1.78899 24 3.20864 24H22.0658C23.4854 24 24.6372 22.8842 24.6372 21.5089V3.24107C24.6372 1.86579 23.4854 0.75 22.0658 0.75ZM21.7176 17.0925C21.5301 17.5128 20.7479 17.819 19.3176 18.037C19.2426 18.1356 19.1836 18.5456 19.0872 18.8622C19.0283 19.0542 18.889 19.1684 18.6533 19.1684H18.6426C18.3104 19.1684 17.9569 19.0179 17.2604 19.0179C16.3176 19.0179 15.9908 19.2254 15.2568 19.7289C14.4801 20.2634 13.7354 20.7201 12.6211 20.6734C11.4961 20.7564 10.5533 20.0921 10.0229 19.7289C9.28364 19.2254 8.96221 19.0179 8.01935 19.0179C7.34971 19.0179 6.92649 19.1787 6.63721 19.1787C6.34792 19.1787 6.23542 19.0075 6.19256 18.8674C6.09614 18.5508 6.03721 18.1356 5.96221 18.037C5.22292 17.928 3.56221 17.6478 3.52471 16.9264C3.51399 16.7396 3.64792 16.5735 3.84078 16.5424C6.32114 16.1479 7.43542 13.6828 7.48364 13.579C7.48364 13.5738 7.48899 13.5686 7.49435 13.5634C7.62828 13.304 7.65507 13.086 7.58006 12.9147C7.39792 12.5047 6.62114 12.3594 6.29435 12.2297C5.44792 11.9079 5.33006 11.5343 5.38364 11.28C5.46935 10.8388 6.15506 10.5638 6.55685 10.7454C6.87292 10.8907 7.15685 10.9634 7.39792 10.9634C7.57471 10.9634 7.69256 10.9219 7.75149 10.8907C7.67649 9.65039 7.49971 7.88069 7.95506 6.88945C9.16042 4.27902 11.7104 4.07143 12.4604 4.07143C12.4926 4.07143 12.7872 4.06624 12.8193 4.06624C14.6783 4.06624 16.4622 4.99001 17.3354 6.88426C17.7908 7.8755 17.614 9.64001 17.539 10.8855C17.5979 10.9167 17.6944 10.953 17.8444 10.9582C18.0747 10.9478 18.3372 10.8752 18.6318 10.7402C18.8461 10.6416 19.1461 10.6572 19.3604 10.7402C19.6979 10.8596 19.9122 11.0931 19.9176 11.3578C19.9229 11.6951 19.6122 11.9858 18.9961 12.2193C18.9211 12.2504 18.8301 12.2764 18.7336 12.3075C18.3854 12.4165 17.8551 12.5774 17.7158 12.9044C17.6408 13.0756 17.6729 13.2936 17.8015 13.5531C17.8069 13.5583 17.8069 13.5634 17.8122 13.5686C17.8604 13.6724 18.9747 16.1376 21.4551 16.532C21.6694 16.5839 21.8354 16.8174 21.7176 17.0925Z" fill="#FF0000"/>
</g>
<defs>
<clipPath id="clip0_150_2298">
<rect width="24" height="24" fill="white" transform="translate(0.637207)"/>
</clipPath>
</defs>
</svg>
