<svg width="25" height="24" viewBox="0 0 25 24" fill="none" xmlns="http://www.w3.org/2000/svg">
<g clip-path="url(#clip0_150_2300)">
<path d="M23.7072 0.75H2.31721C1.8028 0.75 1.38721 1.16559 1.38721 1.68V23.07C1.38721 23.5844 1.8028 24 2.31721 24H23.7072C24.2216 24 24.6372 23.5844 24.6372 23.07V1.68C24.6372 1.16559 24.2216 0.75 23.7072 0.75ZM19.2694 9.16941C19.2781 9.306 19.2781 9.44841 19.2781 9.58791C19.2781 13.8543 16.0289 18.7687 10.0914 18.7687C8.26049 18.7687 6.56324 18.2369 5.13336 17.3214C5.39493 17.3505 5.64486 17.3621 5.91224 17.3621C7.42349 17.3621 8.81268 16.8506 9.91996 15.9846C8.50171 15.9555 7.31014 15.0255 6.90327 13.7468C7.40024 13.8194 7.8478 13.8194 8.3593 13.6886C7.62904 13.5403 6.97266 13.1437 6.50167 12.5662C6.03069 11.9887 5.77415 11.266 5.77564 10.5208V10.4801C6.20286 10.7213 6.70564 10.8696 7.23168 10.8899C6.78947 10.5952 6.42681 10.1959 6.17587 9.72749C5.92492 9.25906 5.79344 8.73595 5.79308 8.20453C5.79308 7.60294 5.95002 7.05366 6.23193 6.57703C7.04249 7.57485 8.05394 8.39094 9.20056 8.97226C10.3472 9.55358 11.6033 9.88712 12.8872 9.95119C12.431 7.75697 14.0701 5.98125 16.0405 5.98125C16.9705 5.98125 17.8075 6.37069 18.3975 6.99844C19.127 6.86184 19.8245 6.58866 20.4464 6.22247C20.2052 6.96937 19.6995 7.60003 19.0281 7.99819C19.6791 7.92844 20.3069 7.74825 20.8881 7.49541C20.4493 8.14059 19.9 8.71313 19.2694 9.16941Z" fill="#FF0000"/>
</g>
<defs>
<clipPath id="clip0_150_2300">
<rect width="24" height="24" fill="white" transform="translate(0.637207)"/>
</clipPath>
</defs>
</svg>
