<svg width="25" height="24" viewBox="0 0 25 24" fill="none" xmlns="http://www.w3.org/2000/svg">
<g clip-path="url(#clip0_150_2304)">
<path d="M10.5816 9.57773L15.5223 12.3854L10.5816 15.193V9.57773ZM24.1372 3.24107V21.5089C24.1372 22.8842 23.0214 24 21.6461 24H3.37828C2.003 24 0.887207 22.8842 0.887207 21.5089V3.24107C0.887207 1.86579 2.003 0.75 3.37828 0.75H21.6461C23.0214 0.75 24.1372 1.86579 24.1372 3.24107ZM21.9575 12.3906C21.9575 12.3906 21.9575 9.29749 21.5631 7.81323C21.3451 6.99325 20.7068 6.34972 19.892 6.13175C18.4233 5.73214 12.5122 5.73214 12.5122 5.73214C12.5122 5.73214 6.6011 5.73214 5.13241 6.13175C4.31762 6.34972 3.67928 6.99325 3.46131 7.81323C3.06689 9.2923 3.06689 12.3906 3.06689 12.3906C3.06689 12.3906 3.06689 15.4836 3.46131 16.9679C3.67928 17.7879 4.31762 18.4055 5.13241 18.6234C6.6011 19.0179 12.5122 19.0179 12.5122 19.0179C12.5122 19.0179 18.4233 19.0179 19.892 18.6182C20.7068 18.4003 21.3451 17.7827 21.5631 16.9627C21.9575 15.4836 21.9575 12.3906 21.9575 12.3906Z" fill="#FF0000"/>
</g>
<defs>
<clipPath id="clip0_150_2304">
<rect width="23.25" height="24" fill="white" transform="translate(0.887207)"/>
</clipPath>
</defs>
</svg>
