<svg width="274" height="275" viewBox="0 0 274 275" fill="none" xmlns="http://www.w3.org/2000/svg">
<g filter="url(#filter0_f_2_260)">
<mask id="mask0_2_260" style="mask-type:alpha" maskUnits="userSpaceOnUse" x="0" y="1" width="274" height="274">
<circle cx="137" cy="138" r="136.497" fill="#FF5CEF" stroke="black" stroke-width="1.00685"/>
</mask>
<g mask="url(#mask0_2_260)">
<g filter="url(#filter1_f_2_260)">
<path fill-rule="evenodd" clip-rule="evenodd" d="M265.07 80.4306C241.916 37.5725 196.586 8.45557 144.455 8.45557C68.7921 8.45557 7.45508 69.7926 7.45508 145.456C7.45508 197.587 36.5721 242.917 79.4303 266.071C24.351 245.697 -14.9121 192.706 -14.9121 130.544C-14.9121 50.7634 49.7629 -13.9116 129.544 -13.9116C191.705 -13.9116 244.696 25.3514 265.07 80.4306Z" fill="#466374" fill-opacity="0.6"/>
</g>
<g filter="url(#filter2_f_2_260)">
<path fill-rule="evenodd" clip-rule="evenodd" d="M4.80066 187.268C26.3692 234.624 74.1116 267.544 129.543 267.544C205.206 267.544 266.543 206.207 266.543 130.544C266.543 75.1108 233.62 27.3668 186.261 5.79947C250.146 22.4568 297.299 80.5467 297.299 149.65C297.299 231.747 230.746 298.299 148.649 298.299C79.5486 298.299 21.4603 251.15 4.80066 187.268Z" fill="white" fill-opacity="0.6"/>
</g>
<g opacity="0.9">
<g filter="url(#filter3_f_2_260)">
<ellipse cx="225.771" cy="221.743" rx="5.86795" ry="13.9154" transform="rotate(45 225.771 221.743)" fill="white" fill-opacity="0.9"/>
</g>
<g filter="url(#filter4_f_2_260)">
<ellipse rx="3.18546" ry="7.5445" transform="matrix(0.707108 0.707105 -0.707108 0.707105 225.771 221.742)" fill="white"/>
</g>
</g>
<g opacity="0.9">
<path fill-rule="evenodd" clip-rule="evenodd" d="M224.792 57.0053C203.488 37.2718 174.976 25.2097 143.647 25.2097C77.6811 25.2097 24.2053 78.6855 24.2053 144.651C24.2053 175.981 36.2674 204.493 56.0009 225.797C32.448 203.98 17.7051 172.787 17.7051 138.151C17.7051 72.1853 71.1809 18.7095 137.147 18.7095C171.783 18.7095 202.976 33.4524 224.792 57.0053Z" fill="url(#paint0_radial_2_260)" fill-opacity="0.6"/>
<path fill-rule="evenodd" clip-rule="evenodd" d="M224.792 57.0053C203.488 37.2718 174.976 25.2097 143.647 25.2097C77.6811 25.2097 24.2053 78.6855 24.2053 144.651C24.2053 175.981 36.2674 204.493 56.0009 225.797C32.448 203.98 17.7051 172.787 17.7051 138.151C17.7051 72.1853 71.1809 18.7095 137.147 18.7095C171.783 18.7095 202.976 33.4524 224.792 57.0053Z" fill="url(#paint1_radial_2_260)"/>
</g>
<g opacity="0.9">
<g filter="url(#filter5_f_2_260)">
<ellipse cx="59.4129" cy="55.3859" rx="7.86001" ry="18.6395" transform="rotate(45 59.4129 55.3859)" fill="white" fill-opacity="0.9"/>
</g>
<g filter="url(#filter6_f_2_260)">
<ellipse cx="59.4135" cy="55.3856" rx="8.018" ry="18.99" transform="rotate(45 59.4135 55.3856)" fill="white"/>
</g>
</g>
<g style="mix-blend-mode:screen" filter="url(#filter7_f_2_260)">
<path fill-rule="evenodd" clip-rule="evenodd" d="M34.46 78.1098C34.46 78.1098 33.6889 79.4872 32.5686 81.5678C32.0205 82.6154 31.3997 83.8472 30.7474 85.1737C30.4273 85.8381 30.1 86.5292 29.775 87.2324C29.4525 87.9381 29.13 88.6535 28.8148 89.3761C28.4995 90.1036 28.194 90.8262 27.8933 91.5391C27.6023 92.2569 27.3161 92.965 27.0445 93.6537C26.5135 95.0335 26.0358 96.326 25.6357 97.439C24.8742 99.6748 24.3892 101.173 24.3892 101.173C24.3892 101.173 25.4101 101.496 26.9451 101.979C27.7114 102.221 28.6062 102.505 29.5641 102.808C30.5219 103.111 31.5404 103.431 32.5661 103.754C33.587 104.076 34.6104 104.401 35.5658 104.702C36.5236 105.005 37.4209 105.286 38.1847 105.526C39.7173 106.011 40.7382 106.334 40.7382 106.334C40.7382 106.334 41.1528 105.051 41.8076 103.14C42.1471 102.189 42.5569 101.081 43.0103 99.9003C43.2431 99.3135 43.488 98.7048 43.7354 98.0889C43.9949 97.4802 44.2568 96.8595 44.5235 96.2387C44.7975 95.6203 45.0764 95.0068 45.3455 94.403C45.6268 93.8016 45.9081 93.2099 46.1822 92.6401C46.7399 91.5052 47.271 90.4503 47.739 89.5555C48.6992 87.7756 49.3612 86.5947 49.3612 86.5947C49.3612 86.5947 48.4276 86.0636 47.0309 85.2682C46.3325 84.8706 45.5129 84.4098 44.6423 83.9127C43.7693 83.4132 42.8406 82.8821 41.9094 82.3583C40.9782 81.82 40.0471 81.2913 39.1741 80.7967C38.3011 80.2971 37.4863 79.8315 36.7879 79.4338C35.3912 78.6385 34.46 78.1098 34.46 78.1098ZM52.6349 88.4619C52.6349 88.4619 52.002 89.5992 51.0757 91.3112C50.6295 92.1745 50.113 93.1905 49.5771 94.2842C49.3103 94.8322 49.0412 95.4021 48.772 95.9816C48.5077 96.5612 48.2409 97.1529 47.9839 97.7494C47.722 98.3459 47.4722 98.9449 47.2249 99.5317C46.9824 100.123 46.7423 100.708 46.5216 101.273C46.0876 102.41 45.6923 103.48 45.365 104.394C44.7369 106.239 44.3392 107.471 44.3392 107.471C44.3392 107.471 44.8218 107.624 45.6729 107.893C46.0973 108.026 46.6114 108.191 47.2006 108.378C47.7899 108.565 48.4616 108.776 49.1915 109.006C49.9141 109.234 50.7071 109.484 51.5413 109.746C52.3754 110.012 53.2533 110.289 54.165 110.575C55.0744 110.863 56.0153 111.159 56.9731 111.462C57.9286 111.763 58.901 112.071 59.8709 112.377C60.8385 112.685 61.8085 112.99 62.7639 113.291C63.7217 113.594 64.6626 113.89 65.5744 114.176C66.4837 114.465 67.364 114.743 68.1982 115.005C69.0299 115.27 69.8156 115.517 70.5479 115.75C71.2778 115.98 71.9423 116.189 72.5315 116.375C73.1281 116.565 73.6422 116.725 74.0665 116.858C74.9177 117.127 75.4051 117.28 75.4051 117.28C75.4051 117.28 75.6718 116.455 76.0913 115.226C76.3096 114.615 76.5739 113.9 76.8625 113.14C77.0128 112.762 77.1729 112.374 77.3353 111.979C77.4978 111.584 77.6675 111.186 77.8397 110.786C78.0143 110.388 78.1913 109.993 78.3684 109.607C78.5478 109.219 78.7297 108.839 78.9043 108.475C79.2632 107.743 79.6051 107.066 79.9058 106.489C80.5217 105.344 80.9485 104.588 80.9485 104.588C80.9485 104.588 80.5047 104.333 79.7287 103.892C79.3408 103.674 78.8752 103.407 78.3296 103.099C77.7912 102.788 77.1898 102.444 76.5254 102.066C75.8561 101.688 75.1408 101.278 74.3793 100.846C73.6179 100.414 72.8201 99.9561 71.9883 99.4881C71.159 99.0128 70.3054 98.523 69.43 98.0259C68.5619 97.5312 67.6744 97.0268 66.7917 96.5272C65.9066 96.0204 65.0239 95.516 64.1534 95.0189C63.2804 94.5242 62.4244 94.0368 61.5926 93.564C60.7657 93.0911 59.9631 92.6328 59.2041 92.2036C58.4451 91.7695 57.7224 91.3573 57.0604 90.9814C56.396 90.6031 55.7849 90.2539 55.249 89.9508C54.7082 89.6428 54.2426 89.3761 53.8522 89.1554C53.0811 88.7141 52.6349 88.4619 52.6349 88.4619ZM36.72 74.3075C36.72 74.3075 37.5591 72.9738 38.8491 70.9951C39.5087 70.0202 40.2944 68.8805 41.148 67.6729C41.5796 67.0764 42.0307 66.4556 42.4914 65.8348C42.9594 65.2164 43.4347 64.5908 43.9173 63.9627C44.4047 63.3444 44.8921 62.726 45.3795 62.1222C45.8669 61.5232 46.3543 60.934 46.8296 60.3665C47.7875 59.2438 48.6944 58.2011 49.4825 57.3208C51.0805 55.5821 52.1693 54.4351 52.1693 54.4351C52.1693 54.4351 52.7683 55.0147 53.8231 56.0308C54.3493 56.5376 54.9895 57.1535 55.7219 57.8616C56.4542 58.5697 57.2835 59.365 58.188 60.2356C58.6391 60.6721 59.1095 61.1231 59.5945 61.5936C60.0819 62.0616 60.5863 62.5466 61.1052 63.0461C61.6217 63.5432 62.1528 64.0549 62.696 64.5787C63.2392 65.1025 63.7945 65.6384 64.3571 66.1816C64.9196 66.7296 65.4944 67.28 66.0763 67.8378C66.6583 68.3955 67.2452 68.963 67.8369 69.5352C68.4285 70.1027 69.0251 70.6798 69.6265 71.2569C70.2254 71.8365 70.8268 72.4185 71.433 72.9956C72.032 73.5752 72.6358 74.1547 73.2348 74.7343C73.8361 75.3114 74.4303 75.8862 75.0244 76.456C75.6136 77.0307 76.2029 77.5957 76.7873 78.1559C77.3644 78.7185 77.9391 79.2689 78.5066 79.8121C79.0692 80.3553 79.6245 80.8912 80.1677 81.415C80.7084 81.9364 81.2395 82.448 81.756 82.9452C82.2749 83.4447 82.7793 83.9297 83.2667 84.3977C83.7517 84.8681 84.2222 85.3192 84.6732 85.7557C85.5753 86.6286 86.4022 87.4264 87.1394 88.1297C87.8717 88.8378 88.5119 89.4537 89.0381 89.9605C90.0929 90.9766 90.6967 91.5561 90.6967 91.5561C90.6967 91.5561 90.0954 92.1866 89.2151 93.1444C88.7835 93.6294 88.2839 94.2017 87.7577 94.8201C87.4958 95.1305 87.2242 95.4554 86.9575 95.7852C86.6907 96.1199 86.4216 96.4569 86.1524 96.7988C85.8881 97.1456 85.6262 97.4899 85.3692 97.8294C85.1145 98.1713 84.8672 98.5108 84.6295 98.8406C84.1591 99.5051 83.725 100.133 83.3613 100.667C82.6532 101.758 82.1925 102.495 82.1925 102.495C82.1925 102.495 81.482 102.051 80.2356 101.28C79.6148 100.897 78.8606 100.429 77.9925 99.8955C77.1316 99.3547 76.152 98.7485 75.085 98.0889C74.5491 97.7615 73.9986 97.4148 73.4239 97.0583C72.8468 96.7091 72.2575 96.3332 71.644 95.9525C71.0353 95.5767 70.4097 95.1887 69.7647 94.7958C69.1245 94.3933 68.4698 93.9859 67.8053 93.5737C67.136 93.1614 66.4595 92.7419 65.7781 92.3175C65.0845 91.8956 64.3934 91.4615 63.6926 91.0275C62.9967 90.5934 62.2934 90.1569 61.5854 89.7204C60.8773 89.2791 60.1668 88.8402 59.4514 88.4061C58.7458 87.9575 58.0352 87.5186 57.3223 87.087C56.6191 86.6408 55.911 86.2043 55.215 85.7702C54.5167 85.3386 53.8207 84.9142 53.1345 84.4801C52.4506 84.0582 51.7741 83.6387 51.1072 83.224C50.4428 82.8118 49.7856 82.4068 49.1406 82.014C48.5028 81.609 47.8772 81.221 47.2685 80.8452C46.655 80.4644 46.0561 80.1031 45.4862 79.7418C44.9115 79.3853 44.3513 79.0483 43.8251 78.7112C42.7557 78.0492 41.7809 77.443 40.9128 76.9143C40.0495 76.3711 39.2953 75.9031 38.6745 75.52C37.4233 74.7537 36.72 74.3075 36.72 74.3075ZM86.1888 53.6422C86.1888 53.6422 85.0854 54.3333 83.4559 55.4003C82.6484 55.941 81.7123 56.5861 80.7181 57.2893C80.2234 57.6482 79.7166 58.0192 79.2025 58.3975C78.6909 58.7831 78.1768 59.1759 77.6627 59.5736C77.1462 59.9737 76.6394 60.3787 76.1423 60.7788C75.6476 61.1813 75.1602 61.5863 74.6922 61.9719C73.7683 62.7648 72.9098 63.5117 72.1872 64.1616C70.7516 65.4807 69.8108 66.3731 69.8108 66.3731C69.8108 66.3731 70.1624 66.7393 70.7807 67.3819C71.0911 67.702 71.4646 68.09 71.8962 68.5362C72.323 68.9824 72.8128 69.4867 73.3415 70.0396C73.8701 70.5877 74.4472 71.1842 75.0535 71.8147C75.6597 72.4452 76.2999 73.1096 76.9619 73.7959C77.6263 74.4845 78.3077 75.195 79.0061 75.9177C79.7021 76.6379 80.4077 77.3726 81.1134 78.1026C81.8166 78.8397 82.5271 79.5696 83.2182 80.2898C83.9166 81.0125 84.6004 81.7206 85.2625 82.4117C85.9245 83.0979 86.5646 83.7624 87.1709 84.3928C87.7795 85.0209 88.3494 85.615 88.8829 86.1679C89.4139 86.7184 89.8965 87.2203 90.3282 87.6665C90.7598 88.1175 91.1332 88.5055 91.4412 88.8281C92.062 89.4682 92.416 89.8368 92.416 89.8368C92.416 89.8368 93.0441 89.2379 94.0019 88.3576C94.4869 87.926 95.0592 87.4264 95.6776 86.8954C95.988 86.6383 96.3129 86.3667 96.6451 86.0976C96.9773 85.8333 97.3168 85.5617 97.6587 85.2925C98.0031 85.0306 98.345 84.7663 98.6869 84.5117C99.0288 84.257 99.3707 84.0073 99.7005 83.7696C100.365 83.2992 100.988 82.87 101.527 82.5014C102.615 81.7957 103.355 81.3326 103.355 81.3326C103.355 81.3326 103.086 80.8985 102.61 80.1419C102.38 79.7612 102.096 79.3029 101.767 78.7743C101.442 78.2456 101.071 77.6564 100.671 77.0041C100.266 76.3517 99.8315 75.6509 99.3707 74.9089C98.91 74.1669 98.425 73.3812 97.9206 72.5713C97.4187 71.7589 96.8973 70.9223 96.3687 70.0687C95.84 69.2151 95.3041 68.3494 94.7682 67.4837C94.2347 66.6205 93.6988 65.7548 93.1702 64.906C92.6391 64.05 92.1226 63.2134 91.6182 62.3986C91.1163 61.5911 90.6313 60.8055 90.1705 60.0634C89.7074 59.319 89.2685 58.6182 88.8708 57.9683C88.4682 57.3184 88.0972 56.7194 87.7723 56.1956C87.4449 55.6694 87.1612 55.2111 86.926 54.8304C86.4555 54.0738 86.1888 53.6422 86.1888 53.6422ZM89.3218 51.775C89.3218 51.775 90.4567 51.1445 92.1663 50.2157C93.032 49.772 94.048 49.2555 95.1417 48.7196C95.6897 48.4528 96.2595 48.1836 96.8367 47.9169C97.4187 47.6502 98.0104 47.3883 98.6093 47.1239C99.201 46.8621 99.8 46.6123 100.389 46.3674C100.981 46.1249 101.565 45.8848 102.13 45.6641C103.268 45.2301 104.335 44.8324 105.251 44.5026C107.094 43.877 108.333 43.4768 108.333 43.4768C108.333 43.4768 108.486 43.9594 108.755 44.8106C108.889 45.2349 109.051 45.7514 109.238 46.3407C109.425 46.93 109.636 47.6017 109.866 48.3316C110.094 49.0542 110.344 49.8472 110.605 50.6813C110.872 51.5155 111.149 52.3933 111.435 53.3051C111.723 54.2145 112.019 55.1554 112.322 56.1132C112.623 57.0686 112.931 58.041 113.237 59.011C113.545 59.9786 113.85 60.9485 114.151 61.904C114.454 62.8618 114.75 63.8027 115.036 64.7145C115.324 65.6238 115.603 66.5041 115.865 67.3382C116.129 68.17 116.377 68.9557 116.61 69.688C116.84 70.4179 117.049 71.0824 117.235 71.6716C117.424 72.2681 117.582 72.7847 117.718 73.2066C117.987 74.0578 118.14 74.5452 118.14 74.5452C118.14 74.5452 117.315 74.8119 116.083 75.2338C115.472 75.4521 114.759 75.714 113.998 76.005C113.622 76.1529 113.229 76.3129 112.836 76.473C112.444 76.6379 112.046 76.8076 111.646 76.9798C111.248 77.1544 110.853 77.3314 110.465 77.5109C110.077 77.6903 109.699 77.8698 109.33 78.0443C108.6 78.4057 107.923 78.7476 107.346 79.0483C106.202 79.6642 105.443 80.0886 105.443 80.0886C105.443 80.0886 105.193 79.6448 104.749 78.8713C104.531 78.4833 104.264 78.0128 103.956 77.4721C103.648 76.9313 103.304 76.3299 102.926 75.6655C102.547 74.9962 102.138 74.2808 101.706 73.5194C101.272 72.7604 100.816 71.9602 100.346 71.1308C99.8727 70.2991 99.3829 69.4455 98.8858 68.5701C98.3911 67.702 97.8867 66.8145 97.3847 65.9342C96.8803 65.0467 96.3759 64.164 95.8788 63.2934C95.3841 62.4205 94.8967 61.5645 94.4239 60.7327C93.951 59.9058 93.4927 59.1032 93.0635 58.3441C92.6294 57.5851 92.2172 56.8625 91.8389 56.2029C91.463 55.5361 91.1138 54.925 90.8107 54.3891C90.5027 53.8483 90.236 53.3827 90.0129 52.9947C89.574 52.2212 89.3218 51.775 89.3218 51.775ZM102.036 23.5269C102.036 23.5269 101.223 23.7863 99.8097 24.2543C99.1089 24.4944 98.2553 24.7903 97.278 25.1419C96.3056 25.4983 95.212 25.913 94.0262 26.3762C92.8404 26.8539 91.5649 27.3825 90.2239 27.9572C89.5546 28.2531 88.8683 28.561 88.1675 28.8787C87.4764 29.2012 86.7659 29.5334 86.0481 29.8778C85.3328 30.2294 84.6029 30.5907 83.873 30.9569C83.1406 31.3352 82.4083 31.7183 81.6687 32.1087C80.9291 32.5088 80.1943 32.9138 79.4499 33.3285C78.7175 33.7456 77.9828 34.1699 77.248 34.5991C76.5133 35.038 75.7907 35.4794 75.0704 35.9232C74.3502 36.3718 73.6422 36.8228 72.9341 37.2787C72.2357 37.7394 71.547 38.1953 70.8656 38.6585C70.189 39.1216 69.5222 39.5848 68.8723 40.0455C68.2248 40.5087 67.5919 40.9719 66.976 41.4229C66.3601 41.8837 65.7587 42.3395 65.1791 42.7833C64.0297 43.6805 62.953 44.5438 61.9637 45.3537C60.9864 46.1709 60.0964 46.93 59.318 47.6114C58.5372 48.3 57.8704 48.9039 57.3199 49.4058C56.2311 50.4219 55.6152 51.0039 55.6152 51.0039C55.6152 51.0039 56.3548 51.7774 57.4654 52.9414C58.0231 53.5185 58.673 54.1975 59.3665 54.925C60.0625 55.65 60.8021 56.4236 61.5417 57.1971C62.2813 57.9707 63.0209 58.7443 63.7145 59.4717C64.4104 60.1968 65.0603 60.8758 65.6132 61.4578C66.7262 62.6193 67.4658 63.3929 67.4658 63.3929C67.4658 63.3929 67.9896 62.8933 68.9281 62.0276C69.3961 61.5984 69.9708 61.0819 70.6352 60.4902C71.3021 59.9058 72.0611 59.2583 72.8977 58.5575C73.744 57.8664 74.6679 57.1268 75.6524 56.3605C76.1495 55.9798 76.6612 55.5894 77.1898 55.1966C77.7185 54.8086 78.2592 54.4133 78.8145 54.018C79.3699 53.6228 79.9421 53.2251 80.5193 52.8274C81.1013 52.4346 81.6929 52.0417 82.2871 51.6465C82.8933 51.2585 83.4995 50.8705 84.1179 50.4849C84.7338 50.1066 85.357 49.7308 85.9778 49.3573C86.6083 48.9887 87.2388 48.625 87.8668 48.2685C88.5022 47.9145 89.1302 47.5629 89.7656 47.2234C90.396 46.8887 91.0241 46.5565 91.6522 46.2388C92.2778 45.9236 92.901 45.6108 93.5145 45.3125C94.128 45.0191 94.7343 44.733 95.3284 44.4589C95.9298 44.1874 96.5142 43.923 97.0864 43.6708C98.2359 43.1762 99.3271 42.7251 100.343 42.3153C101.359 41.92 102.293 41.5684 103.122 41.258C103.964 40.9598 104.691 40.7027 105.295 40.5014C106.502 40.0989 107.196 39.8758 107.196 39.8758C107.196 39.8758 106.874 38.8549 106.389 37.3223C106.148 36.5585 105.862 35.6613 105.564 34.7034C105.263 33.748 104.938 32.7247 104.616 31.7038C104.293 30.678 103.973 29.6595 103.67 28.7017C103.367 27.7438 103.078 26.849 102.841 26.0828C102.358 24.5478 102.036 23.5269 102.036 23.5269Z" fill="white" fill-opacity="0.5"/>
</g>
</g>
</g>
<defs>
<filter id="filter0_f_2_260" x="-0.5" y="0.5" width="275" height="275" filterUnits="userSpaceOnUse" color-interpolation-filters="sRGB">
<feFlood flood-opacity="0" result="BackgroundImageFix"/>
<feBlend mode="normal" in="SourceGraphic" in2="BackgroundImageFix" result="shape"/>
<feGaussianBlur stdDeviation="0.25" result="effect1_foregroundBlur_2_260"/>
</filter>
<filter id="filter1_f_2_260" x="-26.9121" y="-25.9116" width="303.982" height="303.982" filterUnits="userSpaceOnUse" color-interpolation-filters="sRGB">
<feFlood flood-opacity="0" result="BackgroundImageFix"/>
<feBlend mode="normal" in="SourceGraphic" in2="BackgroundImageFix" result="shape"/>
<feGaussianBlur stdDeviation="6" result="effect1_foregroundBlur_2_260"/>
</filter>
<filter id="filter2_f_2_260" x="-7.19934" y="-6.20044" width="316.498" height="316.5" filterUnits="userSpaceOnUse" color-interpolation-filters="sRGB">
<feFlood flood-opacity="0" result="BackgroundImageFix"/>
<feBlend mode="normal" in="SourceGraphic" in2="BackgroundImageFix" result="shape"/>
<feGaussianBlur stdDeviation="6" result="effect1_foregroundBlur_2_260"/>
</filter>
<filter id="filter3_f_2_260" x="201.309" y="197.281" width="48.923" height="48.923" filterUnits="userSpaceOnUse" color-interpolation-filters="sRGB">
<feFlood flood-opacity="0" result="BackgroundImageFix"/>
<feBlend mode="normal" in="SourceGraphic" in2="BackgroundImageFix" result="shape"/>
<feGaussianBlur stdDeviation="6.89" result="effect1_foregroundBlur_2_260"/>
</filter>
<filter id="filter4_f_2_260" x="213.979" y="209.95" width="23.5846" height="23.5845" filterUnits="userSpaceOnUse" color-interpolation-filters="sRGB">
<feFlood flood-opacity="0" result="BackgroundImageFix"/>
<feBlend mode="normal" in="SourceGraphic" in2="BackgroundImageFix" result="shape"/>
<feGaussianBlur stdDeviation="3" result="effect1_foregroundBlur_2_260"/>
</filter>
<filter id="filter5_f_2_260" x="31.3252" y="27.2981" width="56.1754" height="56.1755" filterUnits="userSpaceOnUse" color-interpolation-filters="sRGB">
<feFlood flood-opacity="0" result="BackgroundImageFix"/>
<feBlend mode="normal" in="SourceGraphic" in2="BackgroundImageFix" result="shape"/>
<feGaussianBlur stdDeviation="6.89" result="effect1_foregroundBlur_2_260"/>
</filter>
<filter id="filter6_f_2_260" x="33.5591" y="29.5314" width="51.7087" height="51.7088" filterUnits="userSpaceOnUse" color-interpolation-filters="sRGB">
<feFlood flood-opacity="0" result="BackgroundImageFix"/>
<feBlend mode="normal" in="SourceGraphic" in2="BackgroundImageFix" result="shape"/>
<feGaussianBlur stdDeviation="5.6374" result="effect1_foregroundBlur_2_260"/>
</filter>
<filter id="filter7_f_2_260" x="21.3892" y="20.5269" width="99.7505" height="99.7529" filterUnits="userSpaceOnUse" color-interpolation-filters="sRGB">
<feFlood flood-opacity="0" result="BackgroundImageFix"/>
<feBlend mode="normal" in="SourceGraphic" in2="BackgroundImageFix" result="shape"/>
<feGaussianBlur stdDeviation="1.5" result="effect1_foregroundBlur_2_260"/>
</filter>
<radialGradient id="paint0_radial_2_260" cx="0" cy="0" r="1" gradientUnits="userSpaceOnUse" gradientTransform="translate(47.9942 51.3285) rotate(45) scale(96.2146 187.234)">
<stop stop-color="white"/>
<stop offset="1" stop-color="white" stop-opacity="0"/>
</radialGradient>
<radialGradient id="paint1_radial_2_260" cx="0" cy="0" r="1" gradientUnits="userSpaceOnUse" gradientTransform="translate(47.9942 51.3285) rotate(45) scale(96.2146 58.9809)">
<stop stop-color="white"/>
<stop offset="1" stop-color="white" stop-opacity="0"/>
</radialGradient>
</defs>
</svg>
