<?xml version="1.0" encoding="UTF-8" standalone="no"?>
<svg
   width="1021"
   height="189"
   viewBox="0 0 1021 189"
   fill="none"
   version="1.1"
   id="svg25"
   sodipodi:docname="umiweb2.svg"
   inkscape:version="1.1.2 (b8e25be833, 2022-02-05)"
   xmlns:inkscape="http://www.inkscape.org/namespaces/inkscape"
   xmlns:sodipodi="http://sodipodi.sourceforge.net/DTD/sodipodi-0.dtd"
   xmlns="http://www.w3.org/2000/svg"
   xmlns:svg="http://www.w3.org/2000/svg">
  <sodipodi:namedview
     id="namedview27"
     pagecolor="#ffffff"
     bordercolor="#666666"
     borderopacity="1.0"
     inkscape:pageshadow="2"
     inkscape:pageopacity="0.0"
     inkscape:pagecheckerboard="0"
     showgrid="false"
     inkscape:zoom="0.88717315"
     inkscape:cx="520.19158"
     inkscape:cy="64.249014"
     inkscape:window-width="1920"
     inkscape:window-height="1001"
     inkscape:window-x="-9"
     inkscape:window-y="-9"
     inkscape:window-maximized="1"
     inkscape:current-layer="g4" />
  <g
     filter="url(#filter0_d_2_61)"
     id="g4">
    <path
       d="M104.014 0.265625H140.513V117.697C140.513 131.369 137.583 142.884 131.724 152.243C125.946 161.602 117.93 168.641 107.676 173.361C97.5033 178.081 85.7845 180.441 72.5195 180.441C59.2546 180.441 47.4544 178.081 37.1191 173.361C26.8652 168.641 18.8086 161.602 12.9492 152.243C7.17122 142.884 4.28223 131.369 4.28223 117.697V0.265625H40.9033V117.697C40.9033 125.673 42.1647 132.183 44.6875 137.229C47.2103 142.274 50.8317 145.977 55.5518 148.337C60.3532 150.697 66.0091 151.877 72.5195 151.877C79.1927 151.877 84.8486 150.697 89.4873 148.337C94.2074 145.977 97.7881 142.274 100.229 137.229C102.752 132.183 104.014 125.673 104.014 117.697V0.265625ZM187.388 0.265625H218.394L264.048 130.759L309.702 0.265625H340.708L276.499 178H251.597L187.388 0.265625ZM170.664 0.265625H201.548L207.163 127.463V178H170.664V0.265625ZM326.548 0.265625H357.554V178H320.933V127.463L326.548 0.265625ZM428.599 0.265625V178H392.1V0.265625H428.599ZM568.003 149.802L603.403 0.265625H623.179L627.695 25.168L589.976 178H568.735L568.003 149.802ZM549.814 0.265625L579.111 149.802L576.67 178H552.988L513.56 0.265625H549.814ZM658.823 149.191L687.754 0.265625H724.009L684.702 178H661.021L658.823 149.191ZM634.287 0.265625L669.932 150.412L668.955 178H647.715L609.751 25.0459L614.634 0.265625H634.287ZM863.169 149.436V178H768.564V149.436H863.169ZM780.527 0.265625V178H743.906V0.265625H780.527ZM850.84 72.6533V100.485H768.564V72.6533H850.84ZM863.047 0.265625V28.9521H768.564V0.265625H863.047ZM954.111 99.9971H908.457L908.213 74.8506H946.543C953.298 74.8506 958.831 73.9961 963.145 72.2871C967.458 70.4967 970.672 67.9333 972.788 64.5967C974.985 61.1787 976.084 57.0283 976.084 52.1455C976.084 46.6117 975.026 42.1357 972.91 38.7178C970.876 35.2998 967.661 32.8177 963.267 31.2715C958.953 29.7253 953.379 28.9521 946.543 28.9521H921.152V178H884.531V0.265625H946.543C956.878 0.265625 966.115 1.24219 974.253 3.19531C982.472 5.14844 989.43 8.11882 995.127 12.1064C1000.82 16.0941 1005.18 21.1396 1008.19 27.2432C1011.2 33.2653 1012.71 40.4268 1012.71 48.7275C1012.71 56.0518 1011.04 62.8063 1007.7 68.9912C1004.44 75.1761 999.277 80.2217 992.197 84.1279C985.199 88.0342 976.043 90.1908 964.731 90.5977L954.111 99.9971ZM952.524 178H898.447L912.729 149.436H952.524C958.953 149.436 964.202 148.418 968.271 146.384C972.34 144.268 975.352 141.42 977.305 137.839C979.258 134.258 980.234 130.148 980.234 125.51C980.234 120.301 979.339 115.785 977.549 111.96C975.84 108.135 973.073 105.205 969.248 103.171C965.423 101.055 960.378 99.9971 954.111 99.9971H918.833L919.077 74.8506H963.022L971.445 84.7383C982.269 84.5755 990.977 86.488 997.568 90.4756C1004.24 94.3818 1009.08 99.4681 1012.09 105.734C1015.19 112.001 1016.73 118.715 1016.73 125.876C1016.73 137.269 1014.25 146.872 1009.29 154.685C1004.32 162.416 997.039 168.234 987.437 172.141C977.915 176.047 966.278 178 952.524 178Z"
       fill="#ED1D24"
       id="path2"
       style="fill:#a99b8c;fill-opacity:1" />
  </g>
  <defs
     id="defs23">
    <filter
       id="filter0_d_2_61"
       x="0.282227"
       y="0.265625"
       width="1020.45"
       height="188.176"
       filterUnits="userSpaceOnUse"
       color-interpolation-filters="sRGB">
      <feFlood
         flood-opacity="0"
         result="BackgroundImageFix"
         id="feFlood6" />
      <feColorMatrix
         in="SourceAlpha"
         type="matrix"
         values="0 0 0 0 0 0 0 0 0 0 0 0 0 0 0 0 0 0 127 0"
         result="hardAlpha"
         id="feColorMatrix8" />
      <feOffset
         dy="4"
         id="feOffset10" />
      <feGaussianBlur
         stdDeviation="2"
         id="feGaussianBlur12" />
      <feComposite
         in2="hardAlpha"
         operator="out"
         id="feComposite14" />
      <feColorMatrix
         type="matrix"
         values="0 0 0 0 0 0 0 0 0 0 0 0 0 0 0 0 0 0 0.25 0"
         id="feColorMatrix16" />
      <feBlend
         mode="normal"
         in2="BackgroundImageFix"
         result="effect1_dropShadow_2_61"
         id="feBlend18" />
      <feBlend
         mode="normal"
         in="SourceGraphic"
         in2="effect1_dropShadow_2_61"
         result="shape"
         id="feBlend20" />
    </filter>
  </defs>
</svg>
